<?xml version="1.0" standalone="no"?>
<!DOCTYPE svg PUBLIC "-//W3C//DTD SVG 20010904//EN"
 "http://www.w3.org/TR/2001/REC-SVG-20010904/DTD/svg10.dtd">
<svg version="1.0" xmlns="http://www.w3.org/2000/svg"
 width="480.000000pt" height="480.000000pt" viewBox="0 0 480.000000 480.000000"
 preserveAspectRatio="xMidYMid meet">
<metadata>
Created by potrace 1.14, written by Peter Selinger 2001-2017
</metadata>
<g transform="translate(0.000000,480.000000) scale(0.100000,-0.100000)"
fill="#000000" stroke="none">
<path d="M801 4491 c-13 -8 -35 -133 -46 -261 -4 -36 -9 -76 -12 -90 -7 -35
-12 -630 -4 -630 3 0 6 -28 7 -63 0 -34 4 -91 7 -127 20 -216 20 -214 -3 -266
-22 -48 -70 -169 -75 -189 -1 -5 -5 -17 -8 -25 -14 -37 -62 -188 -82 -260 -1
-3 -7 -25 -14 -50 -7 -25 -14 -49 -15 -55 -8 -38 -32 -142 -36 -152 -3 -10 -4
-17 -14 -78 -4 -27 -10 -57 -12 -66 -4 -16 -61 -46 -76 -41 -5 1 -8 -3 -8 -9
0 -5 -4 -7 -10 -4 -5 3 -10 1 -10 -4 0 -6 -7 -11 -15 -11 -8 0 -15 -5 -15 -11
0 -5 -4 -8 -8 -5 -5 3 -16 -4 -25 -14 -9 -11 -12 -22 -7 -25 13 -8 50 4 50 16
0 5 5 9 10 9 6 0 30 9 52 20 44 21 62 25 54 12 -3 -5 -6 -27 -7 -50 -2 -31 -9
-46 -26 -57 -13 -9 -23 -13 -23 -10 0 3 -13 -1 -30 -10 -16 -9 -30 -13 -30
-10 0 3 -10 -1 -23 -10 -13 -8 -27 -12 -30 -8 -4 3 -7 1 -7 -5 0 -7 -7 -12
-15 -12 -7 0 -19 -8 -24 -17 -6 -10 -11 -13 -11 -6 0 7 -7 10 -15 7 -8 -4 -12
-11 -8 -17 3 -5 1 -7 -5 -4 -15 10 -43 -3 -35 -16 3 -6 1 -7 -5 -3 -11 7 -128
-51 -174 -86 -19 -14 -21 -19 -10 -30 10 -10 14 -10 21 0 5 8 10 13 12 12 17
-6 111 54 101 65 -4 5 -2 5 5 1 12 -6 82 21 94 37 3 5 8 8 10 7 5 -2 57 18 93
36 16 8 35 14 43 14 7 0 13 4 13 8 0 5 6 9 13 10 6 1 25 4 41 8 18 4 27 3 23
-3 -3 -5 -7 -36 -8 -69 -2 -57 -3 -59 -28 -58 -14 0 -49 -12 -78 -27 -29 -15
-53 -25 -53 -21 0 4 -6 0 -13 -8 -7 -8 -18 -16 -26 -18 -22 -5 -141 -76 -141
-84 0 -4 -9 -8 -19 -8 -10 0 -21 -7 -25 -15 -3 -8 -12 -15 -20 -15 -17 0 -30
-30 -18 -42 5 -5 14 -2 22 7 7 8 16 15 21 15 5 0 46 24 93 54 46 30 87 52 92
48 4 -4 4 2 0 13 -6 15 -4 17 5 8 9 -9 18 -8 38 5 14 9 28 19 31 22 3 3 12 5
20 5 8 0 14 5 13 12 -2 7 4 10 12 7 9 -4 29 -1 46 6 16 7 31 11 34 9 2 -2 6
-24 8 -49 3 -25 6 -46 7 -47 2 -2 3 -6 4 -10 6 -34 68 -184 103 -253 48 -90
143 -232 194 -290 17 -19 34 -39 37 -45 11 -15 153 -147 191 -175 18 -14 38
-30 45 -37 47 -43 174 -114 571 -318 94 -48 233 -120 310 -160 212 -110 253
-120 470 -118 217 2 204 -3 717 260 62 32 115 60 118 63 3 4 21 12 40 20 19 8
37 16 40 19 3 3 46 26 95 51 109 54 281 156 309 181 11 11 35 29 53 42 50 34
273 265 273 282 0 3 9 16 20 28 44 46 213 357 195 357 -2 0 3 17 12 37 8 21
17 49 19 63 3 14 7 32 11 40 3 8 5 25 4 38 -2 19 2 22 28 20 17 -1 31 -5 31
-9 0 -3 27 -17 60 -30 33 -13 60 -27 60 -31 0 -5 8 -8 18 -8 9 0 28 -9 42 -20
14 -11 28 -20 32 -20 3 0 39 -22 80 -49 47 -32 76 -46 83 -40 6 6 -2 20 -23
40 -17 16 -32 27 -32 23 0 -4 -9 1 -19 10 -37 34 -246 143 -236 124 3 -7 0 -5
-8 5 -9 10 -19 19 -24 19 -29 1 -83 33 -84 49 -5 83 -3 92 16 95 11 2 22 -1
25 -6 3 -5 15 -11 25 -13 11 -1 26 -6 33 -10 6 -5 12 -5 12 -2 0 4 7 -1 16 -9
8 -9 21 -16 28 -16 7 0 41 -14 77 -32 35 -17 71 -30 79 -29 8 2 12 0 8 -4 -4
-4 7 -16 25 -26 51 -28 101 -52 115 -55 16 -3 16 14 -1 29 -34 32 -292 161
-306 153 -5 -3 -11 0 -14 7 -3 7 -25 19 -48 26 -24 7 -50 18 -58 25 -12 9 -13
8 -6 -4 6 -11 3 -11 -11 2 -11 9 -20 25 -21 35 -1 10 -4 33 -6 51 -4 29 -2 32
17 26 11 -4 33 -13 49 -21 15 -7 27 -10 27 -6 0 4 7 -2 15 -13 8 -10 15 -14
15 -9 0 6 4 4 9 -4 6 -9 16 -11 27 -7 16 6 16 8 4 16 -8 6 -10 10 -5 10 6 0
-21 16 -59 36 -38 19 -75 33 -83 30 -8 -3 -11 -2 -8 3 3 6 -3 14 -12 20 -10 6
-15 11 -12 11 4 0 0 33 -8 72 -8 40 -16 84 -19 98 -3 14 -18 75 -34 135 -17
61 -32 118 -35 128 -4 17 -14 49 -40 132 -20 62 -75 218 -85 240 -46 105 -51
123 -48 193 2 40 5 72 8 72 3 0 5 12 6 28 0 15 4 70 9 122 9 111 14 680 6 680
-3 0 -6 19 -6 43 1 23 -3 69 -7 102 -4 33 -10 80 -13 105 -2 25 -7 56 -9 70
-15 71 -19 86 -22 92 -4 6 -161 -41 -209 -62 -11 -5 -54 -23 -95 -39 -41 -16
-102 -41 -135 -56 -33 -15 -62 -27 -65 -27 -3 0 -12 -5 -20 -12 -8 -6 -45 -27
-82 -46 -38 -18 -68 -38 -68 -44 0 -5 -3 -6 -7 -3 -7 8 -34 -8 -178 -102 -96
-62 -240 -167 -279 -203 -13 -12 -29 -16 -55 -12 -149 20 -564 25 -726 9 -44
-4 -91 -8 -105 -9 -17 -2 -57 22 -128 76 -293 223 -586 378 -949 503 -51 17
-97 29 -102 26z"/>
</g>
</svg>
